<?xml version="1.0" encoding="iso-8859-1"?>
<!-- Uploaded to: SVG Repo, www.svgrepo.com, Generator: SVG Repo Mixer Tools -->
<svg fill="#000000" height="800px" width="800px" version="1.1" id="Layer_1" xmlns="http://www.w3.org/2000/svg" xmlns:xlink="http://www.w3.org/1999/xlink" 
	 viewBox="0 0 511.587 511.587" xml:space="preserve">
<g>
	<g>
		<g>
			<path d="M306.993,42.251h-8.533c-4.719,0-8.533,3.814-8.533,8.533s3.814,8.533,8.533,8.533h8.533
				c4.719,0,8.533-3.814,8.533-8.533S311.712,42.251,306.993,42.251z"/>
			<path d="M375.26,42.251h-8.533c-4.719,0-8.533,3.814-8.533,8.533s3.814,8.533,8.533,8.533h8.533c4.719,0,8.533-3.814,8.533-8.533
				S379.979,42.251,375.26,42.251z"/>
			<path d="M409.393,42.251h-8.533c-4.719,0-8.533,3.814-8.533,8.533s3.814,8.533,8.533,8.533h8.533
				c4.719,0,8.533-3.814,8.533-8.533S414.112,42.251,409.393,42.251z"/>
			<path d="M341.127,42.251h-8.533c-4.719,0-8.533,3.814-8.533,8.533s3.814,8.533,8.533,8.533h8.533
				c4.719,0,8.533-3.814,8.533-8.533S345.846,42.251,341.127,42.251z"/>
			<path d="M365.094,18.909c0.614,0,1.237-0.068,1.86-0.196l8.329-1.852c4.599-1.024,7.501-5.589,6.485-10.189
				c-1.024-4.599-5.572-7.467-10.18-6.477l-8.337,1.843c-4.599,1.033-7.501,5.589-6.485,10.189
				C357.652,16.204,361.177,18.909,365.094,18.909z"/>
			<path d="M298.452,33.718c0.614,0,1.237-0.068,1.86-0.196l8.329-1.852c4.599-1.024,7.501-5.589,6.485-10.189
				c-1.016-4.599-5.581-7.45-10.18-6.477l-8.337,1.843c-4.599,1.033-7.501,5.589-6.485,10.189
				C291.01,31.013,294.543,33.718,298.452,33.718z"/>
			<path d="M331.768,26.309c0.614,0,1.237-0.068,1.86-0.196l8.329-1.852c4.599-1.024,7.501-5.589,6.485-10.189
				c-1.024-4.599-5.572-7.45-10.18-6.477l-8.337,1.843c-4.599,1.033-7.501,5.589-6.485,10.189
				C324.327,23.604,327.852,26.309,331.768,26.309z"/>
			<path d="M329.927,92.126l8.337,1.852c0.623,0.128,1.237,0.196,1.852,0.196c3.908,0,7.441-2.705,8.329-6.682
				c1.015-4.599-1.886-9.156-6.485-10.18l-8.329-1.852c-4.565-0.964-9.165,1.886-10.189,6.485
				C322.426,86.545,325.327,91.102,329.927,92.126z"/>
			<path d="M308.644,69.901l-8.337-1.852c-4.574-0.956-9.156,1.886-10.18,6.485c-1.015,4.599,1.886,9.156,6.485,10.18l8.328,1.852
				c0.631,0.137,1.246,0.205,1.86,0.205c3.908,0,7.441-2.714,8.329-6.69C316.145,75.481,313.243,70.925,308.644,69.901z"/>
			<path d="M375.285,84.709l-8.337-1.852c-4.557-0.964-9.156,1.886-10.18,6.485c-1.015,4.599,1.886,9.156,6.485,10.18l8.329,1.852
				c0.631,0.137,1.246,0.205,1.86,0.205c3.908,0,7.441-2.714,8.329-6.69C382.786,90.29,379.884,85.733,375.285,84.709z"/>
			<path d="M276.948,127.576h-0.008c-1.34-0.905-2.714-1.707-4.079-2.543V83.672c0-8.721-7.1-15.821-15.821-15.821h-1.246V25.184
				c0-4.719-3.814-8.533-8.533-8.533h-51.2c-4.719,0-8.533,3.814-8.533,8.533v42.667h-1.246c-8.721,0-15.821,7.1-15.821,15.821
				v41.361c-1.365,0.836-2.748,1.638-4.088,2.543C133.204,150.001,93.66,191.9,93.66,264.118v15.522c0,2.116,0.162,4.215,0.23,6.323
				l2.628-2.62c17.289-17.835,40.388-27.708,64.93-27.708h0.026c24.192,0.009,47.053,9.506,64.631,26.795
				c0.614,0.358,1.169,0.802,1.681,1.323c14.558,15.019,33.749,23.287,54.05,23.296h0.034c19.866,0,38.596-8.013,52.727-22.579
				l15.061-17.835v-2.517C349.66,191.9,310.117,150.001,276.948,127.576z M204.593,33.718h34.133v8.533h-8.533
				c-4.719,0-8.533,3.814-8.533,8.533s3.814,8.533,8.533,8.533h8.533v8.533h-34.133V33.718z M255.793,116.73
				c-22.05-8.183-46.208-8.183-68.267,0V84.918h8.533h51.2h8.533V116.73z"/>
			<path d="M281.869,324.118h-0.043c-24.183-0.008-47.036-9.506-64.614-26.803c-0.606-0.358-1.169-0.794-1.673-1.314
				c-14.558-15.019-33.758-23.287-54.067-23.296h-0.017c-19.891,0-38.639,8.03-52.779,22.613l-12.86,12.851
				c1.382,9.139,3.413,18.185,6.11,27.068l53.675,176.35h132.122l53.675-176.35c4.113-13.559,6.707-27.494,7.748-41.566
				l-1.903,2.244C329.468,314.262,306.394,324.118,281.869,324.118z"/>
		</g>
	</g>
</g>
</svg>